<svg id="Groupe_2392" data-name="Groupe 2392" xmlns="http://www.w3.org/2000/svg" xmlns:xlink="http://www.w3.org/1999/xlink" width="1920" height="1080" viewBox="0 0 1920 1080">
  <defs>
    <clipPath id="clip-path">
      <rect id="Rectangle_693" data-name="Rectangle 693" width="1080" height="1080" fill="#7a998a"/>
    </clipPath>
  </defs>
  <rect id="Rectangle_696" data-name="Rectangle 696" width="1920" height="1080" fill="#8caa9d"/>
  <path id="Rectangle_696_-_Contour" data-name="Rectangle 696 - Contour" d="M1,1V1079H1919V1H1M0,0H1920V1080H0Z" fill="#707070"/>
  <path id="Tracé_7172" data-name="Tracé 7172" d="M1861-147H1287.675L1035.049,933H1861Z" transform="translate(59 147)" fill="#162b1b"/>
  <path id="Rectangle_688" data-name="Rectangle 688" d="M50,50v980H1870V50H50M0,0H1920V1080H0Z" fill="#fff"/>
  <g id="Groupe_2386" data-name="Groupe 2386" transform="translate(840)" opacity="0.297" clip-path="url(#clip-path)">
    <path id="Tracé_7170" data-name="Tracé 7170" d="M807.831,895.867A143.74,143.74,0,0,1,664.1,752.11c0-12.079,2.091-27.394,5.183-43.514L696.1,607.683H807.57c79.394,0,144.022,65.034,144.022,144.428A143.762,143.762,0,0,1,807.831,895.867M411.624,373.6,383.9,479.652H272.43c-79.394,0-144.021-65.033-144.021-144.425a143.748,143.748,0,1,1,287.5,0c0,10.771-1.712,24.179-4.281,38.374M807.841,479.944,728,479.635l86.218-336.407a63.93,63.93,0,1,0-123.858-31.74L595.983,479.635H516.47L638.357,0H507.214L469.442,148.108c-49.6-52.29-119.531-85.056-197.283-85.056C121.837,63.053,0,184.913,0,335.213,0,485.535,121.837,607.4,272.159,607.4c1.523,0,79.513.118,79.513.118l-21.8,85.076a63.93,63.93,0,0,0,123.858,31.744l29.96-116.82H563.2L443.572,1080H574.714l35.535-141.1c49.624,52.453,119.7,85.363,197.592,85.363C958.163,1024.264,1080,902.427,1080,752.1c0-150.3-121.837-272.161-272.159-272.161" fill="#7a998a"/>
  </g>
</svg>
