<svg id="logo" xmlns="http://www.w3.org/2000/svg" width="37.567" height="37.508" viewBox="0 0 37.567 37.508">
  <rect id="Rectangle_393" data-name="Rectangle 393" width="37.504" height="37.504" transform="translate(0 0)" fill="#fff"/>
  <path id="Tracé_646" data-name="Tracé 646" d="M9.264,18.893a4.266,4.266,0,0,0,4.251,4.262H16.8l.818-3.13a6.729,6.729,0,0,0,.126-1.133,4.242,4.242,0,1,0-8.485,0" transform="translate(-2.493 -4.158)" fill="#e04c38"/>
  <path id="Tracé_647" data-name="Tracé 647" d="M19.333,22.56H16.987L16.1,26.008a1.887,1.887,0,1,1-3.655-.937l.644-2.511-2.347,0A8.033,8.033,0,1,1,16.566,9l2.307-9H0V37.3H15.556Z" transform="translate(0.27 0.211)" fill="#e04c38"/>
  <path id="Tracé_648" data-name="Tracé 648" d="M34.184,18.8A8.032,8.032,0,1,1,28.352,32.34L27.082,37.3H44.927V0H30.4L25.585,18.786h2.347L30.716,7.921a1.887,1.887,0,1,1,3.655.937l-2.545,9.928Z" transform="translate(-7.36 0.211)" fill="#e04c38"/>
  <path id="Tracé_649" data-name="Tracé 649" d="M40.278,36.417a4.266,4.266,0,0,0-4.251-4.262h-3.29l-.792,2.978a7.263,7.263,0,0,0-.153,1.284,4.242,4.242,0,1,0,8.485,0" transform="translate(-9.212 -9.379)" fill="#e04c38"/>
</svg>
