<svg xmlns="http://www.w3.org/2000/svg" width="166.265" height="45.437" viewBox="0 0 166.265 45.437">
  <g id="logo_copro" transform="translate(59.672 -19.257)">
    <g id="Groupe_50" data-name="Groupe 50" transform="translate(-60 19)">
      <g id="Immobilier" transform="translate(52.956 35.689)">
        <rect id="Rectangle_52" data-name="Rectangle 52" width="1.884" height="9.753" transform="translate(0 0.125)" fill="#e04c38"/>
        <path id="Tracé_639" data-name="Tracé 639" d="M75.021,41.708l-3.2,3.847-3.206-3.847h-1.7v9.753H68.8V44.612h.055l2.821,3.436h.265l2.82-3.436h.055v6.849H76.7V41.708Z" transform="translate(-62.495 -41.583)" fill="#e04c38"/>
        <path id="Tracé_640" data-name="Tracé 640" d="M89.426,41.708l-3.2,3.847-3.206-3.847h-1.7v9.753h1.886V44.612h.055l2.821,3.436h.265l2.821-3.436h.055v6.849h1.886V41.708Z" transform="translate(-64.62 -41.583)" fill="#e04c38"/>
        <path id="Tracé_641" data-name="Tracé 641" d="M97.215,46.567a3.471,3.471,0,0,0,.44,1.745,3.052,3.052,0,0,0,1.225,1.2,3.657,3.657,0,0,0,1.777.426A3.391,3.391,0,0,0,103.125,49a3.244,3.244,0,0,0,.967-2.429,3.519,3.519,0,0,0-.436-1.749,3.015,3.015,0,0,0-1.229-1.2,3.932,3.932,0,0,0-3.568,0,2.978,2.978,0,0,0-1.218,1.2,3.558,3.558,0,0,0-.425,1.749m3.442-5.006a5.859,5.859,0,0,1,2.726.625,4.926,4.926,0,0,1,.021,8.734,6.167,6.167,0,0,1-5.515-.011,4.829,4.829,0,0,1-2.622-4.342,4.9,4.9,0,0,1,.691-2.52,4.8,4.8,0,0,1,1.905-1.833,5.8,5.8,0,0,1,2.793-.653" transform="translate(-66.676 -41.561)" fill="#e04c38"/>
        <path id="Tracé_642" data-name="Tracé 642" d="M113.88,49.988a2.426,2.426,0,0,0,1.446-.359,1.232,1.232,0,0,0,.489-1.058,1.155,1.155,0,0,0-.485-.98,2.142,2.142,0,0,0-1.3-.361h-1.772v2.758Zm-.439-4.23a1.811,1.811,0,0,0,1.18-.356,1.215,1.215,0,0,0,.432-.992,1.107,1.107,0,0,0-.4-.9,1.582,1.582,0,0,0-1.047-.332h-1.354v2.576Zm.5-4.05a3.315,3.315,0,0,1,2.185.7,2.173,2.173,0,0,1,.845,1.745,2.031,2.031,0,0,1-.352,1.181,2.4,2.4,0,0,1-1.023.809v.084a2.8,2.8,0,0,1,1.588.911,2.412,2.412,0,0,1,.569,1.6,2.6,2.6,0,0,1-.416,1.449,2.557,2.557,0,0,1-1.152.959,4.3,4.3,0,0,1-1.735.321h-4.084V41.708Z" transform="translate(-68.903 -41.583)" fill="#e04c38"/>
        <rect id="Rectangle_54" data-name="Rectangle 54" width="1.884" height="9.753" transform="translate(50.83 0.125)" fill="#e04c38"/>
        <path id="Tracé_643" data-name="Tracé 643" d="M126.536,41.708v9.753h6.617V49.988h-4.732v-8.28Z" transform="translate(-71.287 -41.583)" fill="#e04c38"/>
        <rect id="Rectangle_55" data-name="Rectangle 55" width="1.885" height="9.753" transform="translate(63.543 0.125)" fill="#e04c38"/>
        <path id="Tracé_644" data-name="Tracé 644" d="M141.45,41.708v9.753h6.4V49.988h-4.518V47.217h4.231V45.744h-4.231V43.181h4.419V41.708Z" transform="translate(-73.486 -41.583)" fill="#e04c38"/>
        <path id="Tracé_645" data-name="Tracé 645" d="M154.51,45.869a1.7,1.7,0,0,0,1.163-.37,1.274,1.274,0,0,0,.423-1.012,1.2,1.2,0,0,0-.419-1,1.883,1.883,0,0,0-1.194-.332h-1.172v2.715Zm.426-4.161a3.27,3.27,0,0,1,2.241.761,2.516,2.516,0,0,1,.866,1.982,2.475,2.475,0,0,1-.431,1.449,2.839,2.839,0,0,1-1.274.974,2.814,2.814,0,0,1,.83.685,8.721,8.721,0,0,1,.9,1.459q.893,1.774,1.327,2.443h-2.1q-.216-.321-.587-1.026a22.26,22.26,0,0,0-1.187-2.1,2.829,2.829,0,0,0-.726-.768,1.439,1.439,0,0,0-.8-.227h-.684v4.119h-1.885V41.708Z" transform="translate(-74.957 -41.583)" fill="#e04c38"/>
      </g>
      <g id="Bard" transform="translate(52.974 18.001)">
        <path id="Tracé_658" data-name="Tracé 658" d="M66.584,32.208a3.334,3.334,0,0,0,1.988-.5,1.692,1.692,0,0,0,.673-1.455,1.591,1.591,0,0,0-.668-1.35,2.945,2.945,0,0,0-1.792-.494h-2.44v3.795Zm-.605-5.822A2.48,2.48,0,0,0,67.6,25.9a1.668,1.668,0,0,0,.6-1.364A1.522,1.522,0,0,0,67.65,23.3a2.175,2.175,0,0,0-1.441-.456H64.345v3.545Zm.691-5.572a4.566,4.566,0,0,1,3.007.961,2.991,2.991,0,0,1,1.163,2.4,2.783,2.783,0,0,1-.486,1.624,3.3,3.3,0,0,1-1.407,1.114v.115a3.856,3.856,0,0,1,2.186,1.253,3.326,3.326,0,0,1,.783,2.2,3.584,3.584,0,0,1-.571,1.993,3.531,3.531,0,0,1-1.586,1.321,5.947,5.947,0,0,1-2.387.442H61.751V20.814Z" transform="translate(-61.751 -20.814)" fill="#fff"/>
        <path id="Tracé_659" data-name="Tracé 659" d="M79.539,29h4.333L81.6,23.686Zm3.382-8.185,5.928,13.422H86.111l-1.393-3.267H78.751l-1.3,3.267H74.736L80.27,20.814Z" transform="translate(-63.666 -20.814)" fill="#fff"/>
        <path id="Tracé_660" data-name="Tracé 660" d="M97.5,26.54a2.346,2.346,0,0,0,1.6-.509,1.758,1.758,0,0,0,.581-1.393,1.653,1.653,0,0,0-.576-1.379,2.594,2.594,0,0,0-1.643-.456H95.847V26.54Zm.586-5.726a4.5,4.5,0,0,1,3.084,1.047,3.461,3.461,0,0,1,1.192,2.729,3.411,3.411,0,0,1-.591,1.993,3.918,3.918,0,0,1-1.754,1.34,3.915,3.915,0,0,1,1.143.941,12.057,12.057,0,0,1,1.24,2.009q1.229,2.44,1.825,3.362h-2.892q-.3-.442-.807-1.413a30.8,30.8,0,0,0-1.633-2.887,3.914,3.914,0,0,0-1-1.057,1.984,1.984,0,0,0-1.1-.312h-.942v5.669H93.254V20.814Z" transform="translate(-66.396 -20.814)" fill="#fff"/>
        <path id="Tracé_661" data-name="Tracé 661" d="M113.584,32.208a4.692,4.692,0,0,0,3.454-1.292,4.563,4.563,0,0,0,1.3-3.386,4.528,4.528,0,0,0-1.312-3.43,4.885,4.885,0,0,0-3.53-1.258h-2.671v9.367Zm.269-11.394a7.911,7.911,0,0,1,3.727.855,6.2,6.2,0,0,1,2.536,2.4,6.766,6.766,0,0,1,.9,3.478,6.69,6.69,0,0,1-.908,3.491,6.1,6.1,0,0,1-2.58,2.359,8.454,8.454,0,0,1-3.833.836h-5.467V20.814Z" transform="translate(-68.605 -20.814)" fill="#fff"/>
      </g>
      <g id="Demathieu" transform="translate(52.94 0.269)">
        <path id="Tracé_650" data-name="Tracé 650" d="M67.063,11.408a4.689,4.689,0,0,0,3.455-1.292,4.563,4.563,0,0,0,1.3-3.386A4.528,4.528,0,0,0,70.507,3.3a4.884,4.884,0,0,0-3.53-1.258H64.305v9.367ZM67.332.014a7.911,7.911,0,0,1,3.727.855,6.2,6.2,0,0,1,2.536,2.4,6.766,6.766,0,0,1,.9,3.478,6.7,6.7,0,0,1-.908,3.492,6.1,6.1,0,0,1-2.58,2.358,8.454,8.454,0,0,1-3.833.836H61.712V.014Z" transform="translate(-61.712 -0.014)" fill="#fff"/>
        <path id="Tracé_651" data-name="Tracé 651" d="M79.666.015V13.436h8.81V11.409H82.261V7.595h5.822V5.567H82.261V2.042h6.081V.015Z" transform="translate(-64.359 -0.014)" fill="#fff"/>
        <path id="Tracé_652" data-name="Tracé 652" d="M104.109.015,99.7,5.308,95.289.015H92.955V13.436h2.594V4.011h.077l3.882,4.726h.364l3.882-4.726h.077v9.425h2.594V.015Z" transform="translate(-66.319 -0.014)" fill="#fff"/>
        <path id="Tracé_653" data-name="Tracé 653" d="M117.587,2.888,119.854,8.2h-4.333ZM116.252.015l-5.534,13.422h2.719l1.3-3.267H120.7l1.394,3.267h2.738L118.9.015Z" transform="translate(-68.938 -0.014)" fill="#fff"/>
        <path id="Tracé_654" data-name="Tracé 654" d="M126.226.015V2.042h4.766V13.436h2.594V2.042h4.765V.015Z" transform="translate(-71.225 -0.014)" fill="#fff"/>
        <path id="Tracé_655" data-name="Tracé 655" d="M152.433.015V5.664h-6.965V.015h-2.594V13.436h2.594V7.768h6.965v5.669h2.594V.015Z" transform="translate(-73.68 -0.014)" fill="#fff"/>
        <rect id="Rectangle_57" data-name="Rectangle 57" width="2.594" height="13.422" transform="translate(84.462 0)" fill="#fff"/>
        <path id="Tracé_656" data-name="Tracé 656" d="M167.479.015V13.436h8.81V11.409h-6.216V7.595h5.821V5.567h-5.821V2.042h6.081V.015Z" transform="translate(-77.308 -0.014)" fill="#fff"/>
        <path id="Tracé_657" data-name="Tracé 657" d="M183.248.014V7.825a4.271,4.271,0,0,0,.36,1.911,2.829,2.829,0,0,0,1.177,1.172,3.8,3.8,0,0,0,1.9.461,4.3,4.3,0,0,0,2.023-.437,2.755,2.755,0,0,0,1.215-1.191,4.664,4.664,0,0,0,.385-2.09V.014H192.9V7.988a5.3,5.3,0,0,1-1.623,4.165,6.644,6.644,0,0,1-4.593,1.456,7.353,7.353,0,0,1-3.233-.663,4.714,4.714,0,0,1-2.09-1.917,5.811,5.811,0,0,1-.72-2.945V.014Z" transform="translate(-79.249 -0.014)" fill="#fff"/>
      </g>
      <g id="logo" transform="translate(0 0)">
        <rect id="Rectangle_393" data-name="Rectangle 393" width="44.737" height="45.306" transform="translate(0.825 0.257)" fill="#fff"/>
        <path id="Tracé_646" data-name="Tracé 646" d="M9.264,19.8a5.183,5.183,0,0,0,5.164,5.178h4l.994-3.8a8.175,8.175,0,0,0,.153-1.376,5.154,5.154,0,1,0-10.308,0" transform="translate(-1.038 -1.904)" fill="#e04c38"/>
        <path id="Tracé_647" data-name="Tracé 647" d="M23.488,27.408H20.637L19.562,31.6a2.292,2.292,0,1,1-4.441-1.138l.782-3.05-2.851,0a9.759,9.759,0,1,1,7.074-16.468L22.929,0H0V45.311H18.9Z" transform="translate(0.328 0.257)" fill="#e04c38"/>
        <path id="Tracé_648" data-name="Tracé 648" d="M36.032,22.834a9.758,9.758,0,1,1-7.085,16.456L27.4,45.311h21.68V0H31.434L25.585,22.823h2.851l3.383-13.2a2.292,2.292,0,1,1,4.441,1.138L33.168,22.823Z" transform="translate(-3.445 0.257)" fill="#e04c38"/>
        <path id="Tracé_649" data-name="Tracé 649" d="M42.1,37.333a5.183,5.183,0,0,0-5.164-5.178h-4l-.962,3.618a8.824,8.824,0,0,0-.186,1.56,5.154,5.154,0,1,0,10.308,0" transform="translate(-4.36 -4.485)" fill="#e04c38"/>
      </g>
    </g>
  </g>
</svg>
