<svg id="Groupe_2385" data-name="Groupe 2385" xmlns="http://www.w3.org/2000/svg" xmlns:xlink="http://www.w3.org/1999/xlink" width="389.387" height="235.869" viewBox="0 0 389.387 235.869">
  <defs>
    <clipPath id="clip-path">
      <rect id="Rectangle_692" data-name="Rectangle 692" width="389.387" height="235.869" fill="none"/>
    </clipPath>
  </defs>
  <g id="Groupe_2384" data-name="Groupe 2384" clip-path="url(#clip-path)">
    <path id="Tracé_7150" data-name="Tracé 7150" d="M130.078,199.573V186.6a2.882,2.882,0,1,0-5.764,0v12.97h-1.443V186.6a2.882,2.882,0,1,0-5.764,0v12.97h-1.44V186.6a4.325,4.325,0,0,1,6.917-3.459,4.583,4.583,0,0,1,1.009,1.067,4.356,4.356,0,0,1,.547-.663,4.484,4.484,0,0,1,.461-.4,4.326,4.326,0,0,1,6.917,3.459v12.97Z" transform="translate(22.834 35.984)" fill="#917956"/>
    <path id="Tracé_7151" data-name="Tracé 7151" d="M131.78,199.834h-1.962V186.6a2.621,2.621,0,1,0-5.242,0v13.231H122.61V186.6a2.621,2.621,0,1,0-5.242,0v13.231h-1.962V186.6a4.586,4.586,0,0,1,7.337-3.666,4.756,4.756,0,0,1,.487.426,4.851,4.851,0,0,1,.363.406,4.877,4.877,0,0,1,.851-.833,4.587,4.587,0,0,1,7.336,3.667Zm-1.44-.522h.918V186.6a3.88,3.88,0,0,0-1.192-2.871,4.062,4.062,0,0,0-5.306-.381,4.246,4.246,0,0,0-.435.381,4.114,4.114,0,0,0-.515.624l-.216.325-.217-.324a4.322,4.322,0,0,0-.95-1,4.065,4.065,0,0,0-6.5,3.251v12.709h.918V186.6a3.143,3.143,0,1,1,6.286,0v12.709h.921V186.6a3.143,3.143,0,1,1,6.286,0Z" transform="translate(22.834 35.984)" fill="#917956"/>
    <path id="Tracé_7152" data-name="Tracé 7152" d="M137.184,182.279h7.206v1.44h-5.766v6.485h4.324v1.44h-4.324v6.486h5.766v1.44h-7.206Z" transform="translate(27.081 35.984)" fill="#917956"/>
    <path id="Tracé_7153" data-name="Tracé 7153" d="M136.923,182.018h7.728v1.962h-5.766v5.963h4.324v1.962h-4.324v5.964h5.766v1.962h-7.728Zm7.206.522h-6.684v16.771h6.684v-.918h-5.766v-7.008h4.324v-.918h-4.324v-7.007h5.766Z" transform="translate(27.081 35.984)" fill="#917956"/>
    <path id="Tracé_7154" data-name="Tracé 7154" d="M152.919,182.28v12.97a2.882,2.882,0,1,0,5.764,0V182.28h1.443v12.97a4.324,4.324,0,0,1-8.648,0V182.28Z" transform="translate(29.903 35.984)" fill="#917956"/>
    <path id="Tracé_7155" data-name="Tracé 7155" d="M151.218,182.019h1.962V195.25a2.621,2.621,0,1,0,5.242,0V182.019h1.965V195.25a4.585,4.585,0,0,1-9.17,0Zm1.44.522h-.918V195.25a4.06,4.06,0,0,0,6.933,2.87,3.926,3.926,0,0,0,1.193-2.87V182.541h-.921V195.25a3.143,3.143,0,1,1-6.286,0Z" transform="translate(29.903 35.984)" fill="#917956"/>
    <path id="Tracé_7156" data-name="Tracé 7156" d="M171.3,199.573h-4.323V182.28H171.3a4.329,4.329,0,0,1,4.325,4.323v8.648a4.332,4.332,0,0,1-4.325,4.323m-2.882-15.853v14.412H171.3a2.878,2.878,0,0,0,2.882-2.882V186.6a2.878,2.878,0,0,0-2.882-2.882Z" transform="translate(32.963 35.984)" fill="#917956"/>
    <path id="Tracé_7157" data-name="Tracé 7157" d="M171.3,199.834h-4.584V182.019H171.3a4.59,4.59,0,0,1,4.586,4.584v8.648a4.593,4.593,0,0,1-4.586,4.584Zm-4.062-.522H171.3a3.876,3.876,0,0,0,2.871-1.191,3.926,3.926,0,0,0,1.193-2.87V186.6a4.068,4.068,0,0,0-4.064-4.062H167.24Zm4.062-.918h-3.143V183.459H171.3a3.139,3.139,0,0,1,3.143,3.143v8.648a3.139,3.139,0,0,1-3.143,3.143Zm-2.621-.522H171.3a2.617,2.617,0,0,0,2.621-2.621V186.6a2.617,2.617,0,0,0-2.621-2.621H168.68Z" transform="translate(32.963 35.984)" fill="#917956"/>
    <path id="Tracé_7158" data-name="Tracé 7158" d="M186.8,182.28a4.332,4.332,0,0,1,4.325,4.323v8.648a4.324,4.324,0,0,1-8.648,0V186.6a4.329,4.329,0,0,1,4.323-4.323m-2.882,12.97a2.882,2.882,0,1,0,5.764,0V186.6a2.882,2.882,0,1,0-5.764,0Z" transform="translate(36.023 35.984)" fill="#917956"/>
    <path id="Tracé_7159" data-name="Tracé 7159" d="M186.8,182.019a4.593,4.593,0,0,1,4.586,4.584v8.648a4.585,4.585,0,0,1-9.17,0V186.6a4.59,4.59,0,0,1,4.584-4.584Zm0,17.293a3.876,3.876,0,0,0,2.871-1.191,3.926,3.926,0,0,0,1.193-2.87V186.6a4.063,4.063,0,0,0-8.126,0v8.648a4.068,4.068,0,0,0,4.062,4.062Zm0-15.853a3.139,3.139,0,0,1,3.143,3.143v8.648a3.143,3.143,0,1,1-6.286,0V186.6a3.139,3.139,0,0,1,3.143-3.143Zm0,14.412a2.617,2.617,0,0,0,2.621-2.621V186.6a2.621,2.621,0,1,0-5.242,0v8.648a2.617,2.617,0,0,0,2.621,2.621Z" transform="translate(36.023 35.984)" fill="#917956"/>
    <path id="Tracé_7160" data-name="Tracé 7160" d="M199.417,199.573h-1.44V186.6a4.324,4.324,0,0,1,8.648,0v12.97h-1.443V186.6a2.882,2.882,0,1,0-5.764,0Z" transform="translate(39.083 35.984)" fill="#917956"/>
    <path id="Tracé_7161" data-name="Tracé 7161" d="M206.886,199.834h-1.965V186.6a2.621,2.621,0,1,0-5.242,0v13.231h-1.962V186.6a4.585,4.585,0,0,1,9.17,0Zm-1.443-.522h.921V186.6a3.931,3.931,0,0,0-1.193-2.871,4.062,4.062,0,0,0-6.933,2.871v12.709h.918V186.6a3.143,3.143,0,1,1,6.286,0Z" transform="translate(39.083 35.984)" fill="#917956"/>
    <path id="Tracé_7162" data-name="Tracé 7162" d="M51.884,174.959H42.318V139.148L26.894,160.853H25.21L9.639,139.348v35.611H0V123.582H9.528l17.093,23.387,16.308-23.387h8.955Z" transform="translate(0 24.396)" fill="#162b1b"/>
    <rect id="Rectangle_689" data-name="Rectangle 689" width="9.638" height="51.377" transform="translate(69.221 147.977)" fill="#162b1b"/>
    <path id="Tracé_7163" data-name="Tracé 7163" d="M112.766,174.959H80.34V123.582h9.64V165.9h22.786Z" transform="translate(15.86 24.396)" fill="#162b1b"/>
    <path id="Tracé_7164" data-name="Tracé 7164" d="M147.921,174.959H115.5V123.582h9.639V165.9h22.786Z" transform="translate(22.8 24.396)" fill="#162b1b"/>
    <path id="Tracé_7165" data-name="Tracé 7165" d="M197.539,174.983H187.256l-5.281-12.949H160.842l-5.281,12.949h-9.777l.218-.515,21.507-51.007h8.3l.1.226Zm-32.991-22.008h13.722l-6.826-16.668Z" transform="translate(28.779 24.372)" fill="#162b1b"/>
    <path id="Tracé_7166" data-name="Tracé 7166" d="M241.047,174.959h-7.638l-.111-.14-27.191-34.251v34.391h-9.06V123.582h7.639l.111.14,27.19,34.392V123.582h9.06Z" transform="translate(38.899 24.396)" fill="#162b1b"/>
    <path id="Tracé_7167" data-name="Tracé 7167" d="M262.061,175.14c-1.361,0-3.245-.03-5.326-.061-2.564-.04-5.429-.084-7.986-.084h-1.383V123.618h1.312c1.442,0,3.822-.049,6.344-.1,2.792-.057,5.679-.116,7.617-.116,18.034,0,28.8,9.5,28.8,25.4,0,16-11.532,26.341-29.378,26.341m-5.054-9.185c2.292.125,4.187.125,5.343.125,11.684,0,18.943-6.622,18.943-17.28,0-10.231-7.028-16.34-18.8-16.34-1.887,0-3.5.056-5.488.193Z" transform="translate(48.833 24.36)" fill="#162b1b"/>
    <path id="Tracé_7168" data-name="Tracé 7168" d="M314.489,174.959h-9.64V153.571l-18.155-29.989h11l12.374,20.835,12.23-20.835h10.5l-18.3,29.989Z" transform="translate(56.596 24.396)" fill="#162b1b"/>
    <rect id="Rectangle_690" data-name="Rectangle 690" width="9.779" height="71.984" transform="translate(236.05 59.132)" fill="#917956"/>
    <path id="Tracé_7169" data-name="Tracé 7169" d="M125.249,49.352V29.339a18.85,18.85,0,0,1,5.72-13.838,19.6,19.6,0,0,1,27.673,0,18.854,18.854,0,0,1,5.72,13.838V131.115h9.778V29.339A18.851,18.851,0,0,1,179.862,15.5a19.6,19.6,0,0,1,27.673,0,18.85,18.85,0,0,1,5.72,13.838V49.352h9.779V29.339a28.262,28.262,0,0,0-8.606-20.731A29.294,29.294,0,0,0,176.1,5.869a31.043,31.043,0,0,0-6.844,7.237,31.076,31.076,0,0,0-6.846-7.237,29.294,29.294,0,0,0-38.332,2.74,28.253,28.253,0,0,0-8.606,20.731V49.352Z" transform="translate(22.795)" fill="#162b1b"/>
    <rect id="Rectangle_691" data-name="Rectangle 691" width="9.779" height="71.984" transform="translate(138.265 59.132)" fill="#917956"/>
  </g>
</svg>
